# xmcd
#
# Track frame offsets: 
#        150
#        22783
#        51941
#        101258
#        128547
#
# Disc length: 2665 seconds
#
# Revision: 0
# Processed by: cddbd v1.5.2PL0 Copyright (c) Steve Scherf et al.
# Submitted via: ExactAudioCopy v1.0b1
#
DISCID=2e0a6705
DTITLE=Eric Clapton  - Union of the Gods - Disc 2
DYEAR=1900
DGENRE=
TTITLE0=Sunshine of Your Love
TTITLE1=Crossroads
TTITLE2=Tell the Truth
TTITLE3=Stormy Monday
TTITLE4=Eyesight to the Blind
EXTD=
EXTT0=
EXTT1=
EXTT2=
EXTT3=
EXTT4=
PLAYORDER=
